<mxfile host="Electron" agent="Mozilla/5.0 (Windows NT 10.0; Win64; x64) AppleWebKit/537.36 (KHTML, like Gecko) draw.io/24.7.17 Chrome/128.0.6613.36 Electron/32.0.1 Safari/537.36" version="24.7.17">
  <diagram name="Page-1" id="beDPreiOPZJuxKneLWL-">
    <mxGraphModel dx="1322" dy="684" grid="1" gridSize="10" guides="1" tooltips="1" connect="1" arrows="1" fold="1" page="1" pageScale="1" pageWidth="850" pageHeight="1100" math="0" shadow="0">
      <root>
        <mxCell id="0" />
        <mxCell id="1" parent="0" />
        <mxCell id="vifbu0pQ3H00wnY5bs2h-1" value="Video" style="rounded=1;arcSize=10;whiteSpace=wrap;html=1;align=center;" vertex="1" parent="1">
          <mxGeometry x="375" y="400" width="100" height="40" as="geometry" />
        </mxCell>
        <mxCell id="vifbu0pQ3H00wnY5bs2h-2" value="Course" style="ellipse;whiteSpace=wrap;html=1;align=center;" vertex="1" parent="1">
          <mxGeometry x="270" y="320" width="100" height="40" as="geometry" />
        </mxCell>
        <mxCell id="vifbu0pQ3H00wnY5bs2h-3" value="Duration" style="ellipse;whiteSpace=wrap;html=1;align=center;" vertex="1" parent="1">
          <mxGeometry x="375" y="320" width="100" height="40" as="geometry" />
        </mxCell>
        <mxCell id="vifbu0pQ3H00wnY5bs2h-4" value="Number" style="ellipse;whiteSpace=wrap;html=1;align=center;" vertex="1" parent="1">
          <mxGeometry x="480" y="320" width="100" height="40" as="geometry" />
        </mxCell>
        <mxCell id="vifbu0pQ3H00wnY5bs2h-5" value="Description" style="ellipse;whiteSpace=wrap;html=1;align=center;" vertex="1" parent="1">
          <mxGeometry x="590" y="320" width="100" height="40" as="geometry" />
        </mxCell>
        <mxCell id="vifbu0pQ3H00wnY5bs2h-6" value="Title" style="ellipse;whiteSpace=wrap;html=1;align=center;" vertex="1" parent="1">
          <mxGeometry x="160" y="320" width="100" height="40" as="geometry" />
        </mxCell>
        <mxCell id="vifbu0pQ3H00wnY5bs2h-7" value="" style="endArrow=none;html=1;rounded=0;" edge="1" parent="1" source="vifbu0pQ3H00wnY5bs2h-6" target="vifbu0pQ3H00wnY5bs2h-1">
          <mxGeometry relative="1" as="geometry">
            <mxPoint x="250" y="440" as="sourcePoint" />
            <mxPoint x="410" y="440" as="targetPoint" />
          </mxGeometry>
        </mxCell>
        <mxCell id="vifbu0pQ3H00wnY5bs2h-8" value="" style="endArrow=none;html=1;rounded=0;" edge="1" parent="1" source="vifbu0pQ3H00wnY5bs2h-2" target="vifbu0pQ3H00wnY5bs2h-1">
          <mxGeometry relative="1" as="geometry">
            <mxPoint x="257" y="364" as="sourcePoint" />
            <mxPoint x="385" y="411" as="targetPoint" />
          </mxGeometry>
        </mxCell>
        <mxCell id="vifbu0pQ3H00wnY5bs2h-9" value="" style="endArrow=none;html=1;rounded=0;" edge="1" parent="1" source="vifbu0pQ3H00wnY5bs2h-3" target="vifbu0pQ3H00wnY5bs2h-1">
          <mxGeometry relative="1" as="geometry">
            <mxPoint x="353" y="368" as="sourcePoint" />
            <mxPoint x="409" y="410" as="targetPoint" />
          </mxGeometry>
        </mxCell>
        <mxCell id="vifbu0pQ3H00wnY5bs2h-10" value="" style="endArrow=none;html=1;rounded=0;" edge="1" parent="1" source="vifbu0pQ3H00wnY5bs2h-4" target="vifbu0pQ3H00wnY5bs2h-1">
          <mxGeometry relative="1" as="geometry">
            <mxPoint x="435" y="370" as="sourcePoint" />
            <mxPoint x="435" y="410" as="targetPoint" />
          </mxGeometry>
        </mxCell>
        <mxCell id="vifbu0pQ3H00wnY5bs2h-11" value="" style="endArrow=none;html=1;rounded=0;" edge="1" parent="1" source="vifbu0pQ3H00wnY5bs2h-5" target="vifbu0pQ3H00wnY5bs2h-1">
          <mxGeometry relative="1" as="geometry">
            <mxPoint x="517" y="368" as="sourcePoint" />
            <mxPoint x="461" y="410" as="targetPoint" />
          </mxGeometry>
        </mxCell>
        <mxCell id="vifbu0pQ3H00wnY5bs2h-12" value="AttachedFileUrl" style="ellipse;whiteSpace=wrap;html=1;align=center;" vertex="1" parent="1">
          <mxGeometry x="700" y="320" width="100" height="40" as="geometry" />
        </mxCell>
        <mxCell id="vifbu0pQ3H00wnY5bs2h-13" value="" style="endArrow=none;html=1;rounded=0;" edge="1" parent="1" source="vifbu0pQ3H00wnY5bs2h-1" target="vifbu0pQ3H00wnY5bs2h-12">
          <mxGeometry relative="1" as="geometry">
            <mxPoint x="560" y="430" as="sourcePoint" />
            <mxPoint x="720" y="430" as="targetPoint" />
          </mxGeometry>
        </mxCell>
      </root>
    </mxGraphModel>
  </diagram>
</mxfile>
